<?xml version="1.0" encoding="utf-8"?>
<!-- Generator: Adobe Illustrator 24.1.2, SVG Export Plug-In . SVG Version: 6.00 Build 0)  -->
<svg version="1.1" id="Layer_1" xmlns="http://www.w3.org/2000/svg" xmlns:xlink="http://www.w3.org/1999/xlink" x="0px" y="0px"
	 viewBox="0 0 640 512" style="enable-background:new 0 0 640 512;" xml:space="preserve">
<style type="text/css">
	.st0{fill:#E4E4F8;}
</style>
<path class="st0" d="M256,64h128v64H256V64z M240,0c-26.5,0-48,21.5-48,48v96c0,26.5,21.5,48,48,48h48v32H32c-17.7,0-32,14.3-32,32
	s14.3,32,32,32h96v32H80c-26.5,0-48,21.5-48,48v96c0,26.5,21.5,48,48,48h160c26.5,0,48-21.5,48-48v-96c0-26.5-21.5-48-48-48h-48v-32
	h256v32h-48c-26.5,0-48,21.5-48,48v96c0,26.5,21.5,48,48,48h160c26.5,0,48-21.5,48-48v-96c0-26.5-21.5-48-48-48h-48v-32h96
	c17.7,0,32-14.3,32-32s-14.3-32-32-32H352v-32h48c26.5,0,48-21.5,48-48V48c0-26.5-21.5-48-48-48H240z M96,448v-64h128v64H96z
	 M416,384h128v64H416V384z"/>
</svg>
