<?xml version="1.0" encoding="utf-8"?>
<!-- Generator: Adobe Illustrator 24.1.2, SVG Export Plug-In . SVG Version: 6.00 Build 0)  -->
<svg version="1.1" id="Layer_1" xmlns="http://www.w3.org/2000/svg" xmlns:xlink="http://www.w3.org/1999/xlink" x="0px" y="0px"
	 viewBox="0 0 640 512" style="enable-background:new 0 0 640 512;" xml:space="preserve">
<style type="text/css">
	.st0{fill:#232339;}
</style>
<path class="st0" d="M54.2,202.9C123.2,136.7,216.8,96,320,96s196.8,40.7,265.8,106.9c12.8,12.2,33,11.8,45.2-0.9s11.8-33-0.9-45.2
	C549.7,79.5,440.4,32,320,32S90.3,79.5,9.8,156.7C-2.9,169-3.3,189.2,8.9,202s32.5,13.2,45.2,0.9H54.2z M320,256
	c56.8,0,108.6,21.1,148.2,56c13.3,11.7,33.5,10.4,45.2-2.8s10.4-33.5-2.8-45.2C459.8,219.2,393,192,320,192s-139.8,27.2-190.5,72
	c-13.3,11.7-14.5,31.9-2.8,45.2s31.9,14.5,45.2,2.8C211.4,277.1,263.2,256,320,256L320,256z M384,416c0-35.3-28.7-64-64-64
	s-64,28.7-64,64s28.7,64,64,64S384,451.3,384,416z"/>
</svg>
