<?xml version="1.0" encoding="utf-8"?>
<!-- Generator: Adobe Illustrator 24.1.2, SVG Export Plug-In . SVG Version: 6.00 Build 0)  -->
<svg version="1.1" id="Layer_1" xmlns="http://www.w3.org/2000/svg" xmlns:xlink="http://www.w3.org/1999/xlink" x="0px" y="0px"
	 viewBox="0 0 512 512" style="enable-background:new 0 0 512 512;" xml:space="preserve">
<style type="text/css">
	.st0{fill:#64CA57;}
</style>
<path class="st0" d="M256,0C114.6,0,0,114.6,0,256s114.6,256,256,256s256-114.6,256-256S397.4,0,256,0z M376.9,294.6l-107.1,99.9
	c-3.8,3.5-8.7,5.5-13.8,5.5s-10.1-2-13.8-5.5l-107.1-99.9c-4.5-4.2-7.1-10.1-7.1-16.3c0-12.3,10-22.3,22.3-22.3H208v-96
	c0-17.7,14.3-32,32-32h32c17.7,0,32,14.3,32,32v96h57.7c12.3,0,22.3,10,22.3,22.3C384,284.5,381.4,290.4,376.9,294.6z"/>
</svg>
