<?xml version="1.0" encoding="utf-8"?>
<!-- Generator: Adobe Illustrator 24.1.2, SVG Export Plug-In . SVG Version: 6.00 Build 0)  -->
<svg version="1.1" id="Layer_1" xmlns="http://www.w3.org/2000/svg" xmlns:xlink="http://www.w3.org/1999/xlink" x="0px" y="0px"
	 viewBox="0 0 640 512" style="enable-background:new 0 0 640 512;" xml:space="preserve">
<style type="text/css">
	.st0{fill:#CCCCCC;}
</style>
<path class="st0" d="M576,0c17.7,0,32,14.3,32,32v448c0,17.7-14.3,32-32,32s-32-14.3-32-32V32C544,14.3,558.3,0,576,0z M448,96
	c17.7,0,32,14.3,32,32v352c0,17.7-14.3,32-32,32s-32-14.3-32-32V128C416,110.3,430.3,96,448,96z M352,224v256c0,17.7-14.3,32-32,32
	s-32-14.3-32-32V224c0-17.7,14.3-32,32-32S352,206.3,352,224z M192,288c17.7,0,32,14.3,32,32v160c0,17.7-14.3,32-32,32
	s-32-14.3-32-32V320C160,302.3,174.3,288,192,288z M96,416v64c0,17.7-14.3,32-32,32s-32-14.3-32-32v-64c0-17.7,14.3-32,32-32
	S96,398.3,96,416z"/>
</svg>
